<svg width="194" height="60" viewBox="0 0 194 60" fill="none" xmlns="http://www.w3.org/2000/svg">
<g filter="url(#filter0_d)">
<path d="M12.4261 38.3729L5.0479 16.5037C4.80019 15.7959 4.88866 15.1413 5.31331 14.5397C5.77334 13.9381 6.37492 13.6373 7.11805 13.6373C8.00272 13.6373 8.79893 13.9027 9.50667 14.4335C10.2498 14.9643 10.7452 15.6544 10.9929 16.5037L17.1503 38.0013C17.1503 38.0367 17.168 38.0544 17.2034 38.0544C17.2387 38.0544 17.2564 38.0367 17.2564 38.0013L23.4669 16.4506C23.7146 15.6367 24.1746 14.9643 24.847 14.4335C25.5547 13.9027 26.3332 13.6373 27.1825 13.6373C27.9256 13.6373 28.4918 13.9381 28.8811 14.5397C29.3057 15.1059 29.3942 15.7251 29.1465 16.3975L21.7683 38.3729C21.4852 39.2221 20.9721 39.9122 20.2289 40.443C19.5212 40.9738 18.7073 41.2392 17.7872 41.2392H16.4071C15.5225 41.2392 14.7086 40.9738 13.9654 40.443C13.2223 39.9122 12.7092 39.2221 12.4261 38.3729Z" fill="#26457E"/>
<path d="M34.0721 4.34821C34.0721 3.5343 34.3552 2.84425 34.9213 2.27806C35.5229 1.71187 36.213 1.42877 36.9915 1.42877C37.77 1.42877 38.4424 1.71187 39.0085 2.27806C39.6101 2.84425 39.9109 3.5343 39.9109 4.34821C39.9109 5.16211 39.6101 5.85216 39.0085 6.41835C38.4424 6.98454 37.77 7.26764 36.9915 7.26764C36.213 7.26764 35.5229 6.98454 34.9213 6.41835C34.3552 5.85216 34.0721 5.16211 34.0721 4.34821ZM39.0085 40.3899C38.4424 40.9561 37.77 41.2392 36.9915 41.2392C36.213 41.2392 35.5229 40.9561 34.9213 40.3899C34.3552 39.8237 34.0721 39.1337 34.0721 38.3198V16.5567C34.0721 15.7428 34.3552 15.0528 34.9213 14.4866C35.5229 13.9204 36.213 13.6373 36.9915 13.6373C37.77 13.6373 38.4424 13.9204 39.0085 14.4866C39.6101 15.0528 39.9109 15.7428 39.9109 16.5567V38.3198C39.9109 39.1337 39.6101 39.8237 39.0085 40.3899Z" fill="#26457E"/>
<path d="M53.3077 40.3899C52.7415 40.9561 52.0514 41.2392 51.2375 41.2392C50.4236 41.2392 49.7336 40.9561 49.1674 40.3899C48.6012 39.8237 48.3181 39.1337 48.3181 38.3198V16.3975C48.3181 15.619 48.5835 14.9643 49.1143 14.4335C49.6451 13.9027 50.2998 13.6373 51.0783 13.6373C51.8568 13.6373 52.5115 13.9027 53.0423 14.4335C53.6085 14.9643 53.8916 15.619 53.8916 16.3975V18.8923C53.8916 18.9277 53.9093 18.9454 53.9446 18.9454C54.0154 18.9454 54.0508 18.9277 54.0508 18.8923C55.1124 17.4414 56.5279 16.2559 58.2973 15.3359C60.0666 14.3804 61.9952 13.8319 64.083 13.6904C64.72 13.655 65.2508 13.8496 65.6755 14.2743C66.1355 14.6989 66.3655 15.2297 66.3655 15.8667C66.3655 16.5037 66.1355 17.0522 65.6755 17.5122C65.2508 17.9368 64.72 18.1668 64.083 18.2022C60.6859 18.3438 58.1734 19.2285 56.5456 20.8563C54.9532 22.4487 54.157 24.8196 54.157 27.9691V38.3198C54.157 39.1337 53.8739 39.8237 53.3077 40.3899Z" fill="#26457E"/>
<path d="M75.4529 40.443C74.9221 40.9738 74.2675 41.2392 73.489 41.2392C72.7104 41.2392 72.0558 40.9738 71.525 40.443C70.9942 39.9122 70.7288 39.2575 70.7288 38.479V16.2913C70.7288 15.5482 70.9765 14.9289 71.4719 14.4335C72.0027 13.9027 72.6397 13.6373 73.3828 13.6373C74.1259 13.6373 74.7629 13.9027 75.2937 14.4335C75.8245 14.9289 76.1076 15.5482 76.143 16.2913V16.7691C76.143 16.8044 76.1607 16.8221 76.1961 16.8221C76.2668 16.8221 76.3022 16.8044 76.3022 16.7691C78.3901 14.3274 80.6902 13.1065 83.2027 13.1065C84.7597 13.1065 86.016 13.425 86.9714 14.062C87.9269 14.6989 88.7585 15.7782 89.4662 17.2999C89.4662 17.3353 89.5016 17.3529 89.5724 17.3529C89.6078 17.3529 89.6431 17.3353 89.6785 17.2999C91.7664 14.5043 94.2435 13.1065 97.1098 13.1065C100.012 13.1065 102.082 13.9027 103.32 15.4951C104.594 17.0522 105.231 19.7947 105.231 23.7226V38.479C105.231 39.2221 104.948 39.8768 104.382 40.443C103.851 40.9738 103.214 41.2392 102.471 41.2392C101.728 41.2392 101.091 40.9738 100.56 40.443C100.029 39.8768 99.7638 39.2221 99.7638 38.479V25.315C99.7638 22.0948 99.4631 19.9716 98.8615 18.9454C98.2599 17.8838 97.1452 17.3529 95.5174 17.3529C94.4912 17.3529 93.4296 17.8838 92.3326 18.9454C91.271 20.007 90.7401 21.0686 90.7401 22.1302V38.479C90.7401 39.2221 90.4747 39.8768 89.9439 40.443C89.4131 40.9738 88.7762 41.2392 88.033 41.2392C87.2899 41.2392 86.6352 40.9738 86.069 40.443C85.5382 39.8768 85.2728 39.2221 85.2728 38.479V25.315C85.2728 22.0948 84.972 19.9716 84.3705 18.9454C83.7689 17.8838 82.6542 17.3529 81.0264 17.3529C80.0002 17.3529 78.9563 17.8838 77.8946 18.9454C76.833 20.007 76.3022 21.0686 76.3022 22.1302V38.479C76.3022 39.2575 76.0191 39.9122 75.4529 40.443Z" fill="#26457E"/>
<path d="M170.511 40.443C169.98 40.9738 169.326 41.2392 168.547 41.2392C167.769 41.2392 167.096 40.9738 166.53 40.443C165.999 39.9122 165.734 39.2575 165.734 38.479V16.2383C165.734 15.5305 165.982 14.9289 166.477 14.4335C167.008 13.9027 167.627 13.6373 168.335 13.6373C169.043 13.6373 169.644 13.9027 170.14 14.4335C170.67 14.9289 170.953 15.5305 170.989 16.2383L171.042 17.0345C171.042 17.0699 171.06 17.0875 171.095 17.0875C171.13 17.0875 171.166 17.0699 171.201 17.0345C173.714 14.4158 176.58 13.1065 179.8 13.1065C183.02 13.1065 185.374 14.0266 186.86 15.8667C188.346 17.6714 189.089 20.6439 189.089 24.7842V38.5321C189.089 39.2752 188.824 39.9122 188.293 40.443C187.762 40.9738 187.125 41.2392 186.382 41.2392C185.639 41.2392 184.984 40.9738 184.418 40.443C183.887 39.9122 183.622 39.2752 183.622 38.5321V25.5804C183.622 22.3956 183.233 20.237 182.454 19.1046C181.676 17.9368 180.26 17.3529 178.208 17.3529C176.545 17.3529 174.97 18.0961 173.484 19.5823C172.033 21.0332 171.307 22.5902 171.307 24.2534V38.479C171.307 39.2575 171.042 39.9122 170.511 40.443Z" fill="#26457E"/>
<path fill-rule="evenodd" clip-rule="evenodd" d="M143.086 21.987C143.707 22.1295 144.304 21.8378 144.419 21.3356C144.534 20.8333 144.124 20.3107 143.503 20.1683C142.882 20.0258 142.285 20.3175 142.17 20.8197C142.054 21.322 142.465 21.8446 143.086 21.987ZM143.875 23.7095C145.173 24.0071 145.404 22.6659 145.644 21.6166C145.885 20.5672 145.028 19.4752 143.73 19.1776C142.432 18.88 141.185 19.4894 140.944 20.5387C140.704 21.5881 142.577 23.4119 143.875 23.7095Z" fill="#CC1C34"/>
<path fill-rule="evenodd" clip-rule="evenodd" d="M136.099 42.4561C144.387 42.4561 151.105 35.7378 151.105 27.4502C151.105 19.1627 144.387 12.4443 136.099 12.4443C127.812 12.4443 121.093 19.1627 121.093 27.4502C121.093 35.7378 127.812 42.4561 136.099 42.4561ZM136.099 44.6678C145.608 44.6678 153.317 36.9592 153.317 27.4502C153.317 17.9412 145.608 10.2326 136.099 10.2326C126.59 10.2326 118.881 17.9412 118.881 27.4502C118.881 36.9592 126.59 44.6678 136.099 44.6678Z" fill="#CC1C34"/>
<path fill-rule="evenodd" clip-rule="evenodd" d="M132.012 21.504C132.145 21.0057 132.079 20.4748 131.628 19.9015C130.683 18.7021 128.944 18.4956 127.745 19.4404C126.546 20.3852 126.339 22.1234 127.284 23.3229C127.736 23.8962 128.236 24.0851 128.752 24.0719C129.318 24.0574 130.013 23.7909 130.728 23.2274C131.443 22.6639 131.865 22.0509 132.012 21.504ZM131.412 24.0961C133.092 22.7734 133.819 20.8964 132.496 19.2172C131.174 17.538 128.74 17.249 127.061 18.5717C125.382 19.8944 125.093 22.3279 126.415 24.0072C127.738 25.6864 129.733 25.4188 131.412 24.0961Z" fill="#CC1C34"/>
<path fill-rule="evenodd" clip-rule="evenodd" d="M132.045 36.5098C132.351 36.5098 132.598 36.2622 132.598 35.9569C132.598 35.6515 132.351 35.4039 132.045 35.4039C131.74 35.4039 131.492 35.6515 131.492 35.9569C131.492 36.2622 131.74 36.5098 132.045 36.5098ZM132.045 38.7215C133.572 38.7215 134.81 37.4837 134.81 35.9569C134.81 34.43 133.572 33.1923 132.045 33.1923C130.518 33.1923 129.281 34.43 129.281 35.9569C129.281 37.4837 130.518 38.7215 132.045 38.7215Z" fill="#CC1C34"/>
<path d="M136.137 1.42041L136.228 13.5042M147.358 5.90428L141.802 16.2051M154.519 14.3646L146.952 18.8934M159.588 26.6817L150.072 26.7735M134.993 50.0872V41.1489M123.782 48.6418L128.317 40.6054M116.601 40.206L124.523 35.3514M111.57 27.883L121.848 28.0493" stroke="#CC1C34" stroke-width="2"/>
<path fill-rule="evenodd" clip-rule="evenodd" d="M147.884 33.5783L156.996 39.0102L155.863 40.9099L146.752 35.4781L147.884 33.5783Z" fill="#CC1C34"/>
<path fill-rule="evenodd" clip-rule="evenodd" d="M123.517 22.5756L113.087 17.9445L113.985 15.9231L124.414 20.5542L123.517 22.5756Z" fill="#CC1C34"/>
<path fill-rule="evenodd" clip-rule="evenodd" d="M143.606 39.0102L149.168 46.7919L147.368 48.0778L141.807 40.2961L143.606 39.0102Z" fill="#CC1C34"/>
<path fill-rule="evenodd" clip-rule="evenodd" d="M128.371 17.0013L121.83 7.3835L123.659 6.13966L130.2 15.7574L128.371 17.0013Z" fill="#CC1C34"/>
<path fill-rule="evenodd" clip-rule="evenodd" d="M145.891 4.31442C146.028 4.04176 146.361 3.9322 146.633 4.06972L149.869 5.70145C150.141 5.83896 150.251 6.17146 150.113 6.44412C149.976 6.71678 149.643 6.82633 149.371 6.68882L146.135 5.05709C145.863 4.91958 145.753 4.58707 145.891 4.31442Z" fill="#CC1C34"/>
<path fill-rule="evenodd" clip-rule="evenodd" d="M134.258 0.551468C134.278 0.246759 134.541 0.016035 134.846 0.0361314L138.462 0.274597C138.766 0.294694 138.997 0.558 138.977 0.862709C138.957 1.16742 138.694 1.39814 138.389 1.37805L134.773 1.13958C134.469 1.11948 134.238 0.856176 134.258 0.551468Z" fill="#CC1C34"/>
<path fill-rule="evenodd" clip-rule="evenodd" d="M132.739 50.951C132.733 50.6457 132.975 50.3934 133.281 50.3874L136.904 50.3168C137.209 50.3108 137.461 50.5535 137.467 50.8588C137.473 51.1641 137.23 51.4165 136.925 51.4224L133.302 51.4931C132.997 51.499 132.745 51.2564 132.739 50.951Z" fill="#CC1C34"/>
<path fill-rule="evenodd" clip-rule="evenodd" d="M120.015 7.48364C119.848 7.22759 119.921 6.88513 120.177 6.71873L123.215 4.7443C123.472 4.5779 123.814 4.65059 123.98 4.90665C124.147 5.1627 124.074 5.50516 123.818 5.67156L120.78 7.64599C120.524 7.81239 120.181 7.7397 120.015 7.48364Z" fill="#CC1C34"/>
<path fill-rule="evenodd" clip-rule="evenodd" d="M111.904 18.4636C111.617 18.3584 111.47 18.0407 111.576 17.754L112.568 15.049C112.674 14.7623 112.991 14.6152 113.278 14.7204C113.565 14.8256 113.712 15.1433 113.606 15.43L112.614 18.135C112.508 18.4217 112.191 18.5688 111.904 18.4636Z" fill="#CC1C34"/>
<path fill-rule="evenodd" clip-rule="evenodd" d="M110.994 29.9225C110.688 29.9352 110.431 29.698 110.418 29.3929L110.299 26.514C110.286 26.2089 110.524 25.9513 110.829 25.9386C111.134 25.926 111.391 26.1631 111.404 26.4682L111.523 29.3472C111.536 29.6523 111.299 29.9099 110.994 29.9225Z" fill="#CC1C34"/>
<path fill-rule="evenodd" clip-rule="evenodd" d="M116.931 42.3397C116.656 42.4722 116.325 42.3565 116.193 42.0814L114.943 39.4851C114.811 39.21 114.926 38.8795 115.201 38.7471C115.477 38.6146 115.807 38.7303 115.939 39.0054L117.189 41.6017C117.322 41.8769 117.206 42.2073 116.931 42.3397Z" fill="#CC1C34"/>
<path fill-rule="evenodd" clip-rule="evenodd" d="M153.935 12.1262C154.194 11.9658 154.535 12.0464 154.696 12.3063L156.599 15.3896C156.759 15.6494 156.679 15.9901 156.419 16.1505C156.159 16.311 155.818 16.2303 155.658 15.9705L153.755 12.8872C153.594 12.6273 153.675 12.2866 153.935 12.1262Z" fill="#CC1C34"/>
<path fill-rule="evenodd" clip-rule="evenodd" d="M160.116 24.1323C160.421 24.1107 160.685 24.3401 160.707 24.6447L160.964 28.2592C160.985 28.5638 160.756 28.8282 160.451 28.8499C160.147 28.8715 159.882 28.6421 159.861 28.3375L159.604 24.723C159.582 24.4184 159.812 24.154 160.116 24.1323Z" fill="#CC1C34"/>
<path fill-rule="evenodd" clip-rule="evenodd" d="M158.069 38.538C158.33 38.697 158.412 39.0372 158.253 39.298L156.528 42.1293C156.369 42.39 156.028 42.4726 155.768 42.3136C155.507 42.1547 155.424 41.8145 155.583 41.5537L157.309 38.7224C157.468 38.4616 157.808 38.3791 158.069 38.538Z" fill="#CC1C34"/>
<path fill-rule="evenodd" clip-rule="evenodd" d="M150.514 46.6049C150.689 46.8553 150.628 47.2 150.377 47.3748L147.658 49.2726C147.408 49.4474 147.063 49.386 146.888 49.1356C146.714 48.8852 146.775 48.5405 147.025 48.3658L149.744 46.468C149.995 46.2932 150.339 46.3545 150.514 46.6049Z" fill="#CC1C34"/>
<path fill-rule="evenodd" clip-rule="evenodd" d="M125.001 50.4517C124.826 50.702 124.481 50.7631 124.231 50.5882L121.513 48.6886C121.263 48.5137 121.202 48.169 121.377 47.9187C121.552 47.6684 121.896 47.6073 122.147 47.7822L124.865 49.6818C125.115 49.8567 125.176 50.2014 125.001 50.4517Z" fill="#CC1C34"/>
</g>
<defs>
<filter id="filter0_d" x="0.911011" y="0.0349121" width="192.178" height="59.4583" filterUnits="userSpaceOnUse" color-interpolation-filters="sRGB">
<feFlood flood-opacity="0" result="BackgroundImageFix"/>
<feColorMatrix in="SourceAlpha" type="matrix" values="0 0 0 0 0 0 0 0 0 0 0 0 0 0 0 0 0 0 127 0"/>
<feOffset dy="4"/>
<feGaussianBlur stdDeviation="2"/>
<feColorMatrix type="matrix" values="0 0 0 0 0 0 0 0 0 0 0 0 0 0 0 0 0 0 0.25 0"/>
<feBlend mode="normal" in2="BackgroundImageFix" result="effect1_dropShadow"/>
<feBlend mode="normal" in="SourceGraphic" in2="effect1_dropShadow" result="shape"/>
</filter>
</defs>
</svg>
